# xmcd
#
# Track frame offsets:
#	150
#	12535
#	31262
#	45528
#	56292
#	69618
#	81600
#	93886
#	108701
#	120488
#	136302
#	150864
#	171134
#	189275
#	198279
#	212025
#	225889
#	239129
#	262236
#	276700
#	291805
#	307660
#	328312
#	348022
#
# Disc length: 4831 seconds
#
# Revision: 0
# Processed by: cddbd v1.5.2PL0 Copyright (c) Steve Scherf et al.
# Submitted via: audiograbber 1.83.01
#
DISCID=5812dd18
DTITLE=Willie Nelson - The Complete Atlantic Sessions CD1
DYEAR=2006
DGENRE=Country
TTITLE0=Shotgun Willie
TTITLE1=Whiskey River
TTITLE2=Sad Songs And Waltzes
TTITLE3=Local Memory
TTITLE4=Slow Down Old World
TTITLE5=Stay All Night (Stay A Little Longer)
TTITLE6=Devil In A Sleeping Bag
TTITLE7=She's Not For You
TTITLE8=Bubbles In My Beer
TTITLE9=You Look Like The Devil
TTITLE10=So Much To Do
TTITLE11=A Song For You
TTITLE12=I Gotta Have Something I Ain't Got (Outtake) [Bonus Track]
TTITLE13=I'm So Ashamed (Outtake) [Bonus Track]
TTITLE14=My Cricket and Me (Solo Outtake) [Bonus Track]
TTITLE15=Both Ends Of The Candle (Outtake) [Bonus Track]
TTITLE16=Slowdown Old World (Alternate Version) [Bonus Track]
TTITLE17=Under The Double Eagle (Outtake) [Bonus Track]
TTITLE18=So Much To Do (Alternate Version) [Bonus Track]
TTITLE19=My Cricket and Me (Band Outtake) [Bonus Track]
TTITLE20=Save Your Tears (Outtake) [Bonus Track]
TTITLE21=A Song For You (Alternate Version) [Bonus Track]
TTITLE22=Whiskey River (Alternate Version) [Bonus Track]
TTITLE23=I Drank All Of Our Precious Love Away (Outtake) [Bonus Track]
EXTD=
EXTT0=
EXTT1=
EXTT2=
EXTT3=
EXTT4=
EXTT5=
EXTT6=
EXTT7=
EXTT8=
EXTT9=
EXTT10=
EXTT11=
EXTT12=
EXTT13=
EXTT14=
EXTT15=
EXTT16=
EXTT17=
EXTT18=
EXTT19=
EXTT20=
EXTT21=
EXTT22=
EXTT23=
PLAYORDER=
